<svg xmlns="http://www.w3.org/2000/svg" width="120" height="120" viewBox="0 0 120 120">
  <defs>
    <linearGradient id="grad" x1="0%" y1="0%" x2="100%" y2="100%">
      <stop offset="0%" stop-color="#0ea5e9" />
      <stop offset="100%" stop-color="#2563eb" />
    </linearGradient>
    <linearGradient id="grad2" x1="0%" y1="0%" x2="100%" y2="0%">
      <stop offset="0%" stop-color="#1d4ed8" />
      <stop offset="100%" stop-color="#0ea5e9" />
    </linearGradient>
  </defs>
  <rect x="5" y="5" width="110" height="110" rx="20" fill="url(#grad)" opacity="0.15" />
  <circle cx="60" cy="60" r="45" fill="url(#grad)" />
  <path d="M60 28c-11 10-22 21-22 34 0 13 10 24 22 24s22-11 22-24c0-13-11-24-22-34zm0 45c-6.5 0-12-5.5-12-12s5.5-12 12-12 12 5.5 12 12-5.5 12-12 12z" fill="#fff" />
  <path d="M60 18c-2.2 0-4 1.8-4 4 0 5-4 12-10 18-8 8-14 16-14 26 0 14 12 26 28 26s28-12 28-26c0-10-6-18-14-26-6-6-10-13-10-18 0-2.2-1.8-4-4-4z" fill="#0f172a" opacity="0.08" />
  <path d="M58 38h4v44h-4z" fill="#fff" opacity="0.35" />
  <path d="M60 38c-8 8-18 19-18 28 0 9 8 17 18 17s18-8 18-17c0-9-10-20-18-28z" fill="#fff" opacity="0.15" />
  <circle cx="60" cy="60" r="12" fill="url(#grad2)" opacity="0.85" />
  <circle cx="60" cy="60" r="6" fill="#fff" />
</svg>
